<svg width="73" height="73" viewBox="0 0 73 73" fill="none" xmlns="http://www.w3.org/2000/svg">
<path d="M13.6874 48.6667H53.2291L60.8333 18.25H6.08325L13.6874 48.6667Z" fill="black"/>
<path d="M68.4375 9.125H63.1146L60.8333 18.25M60.8333 18.25L53.2292 48.6667H13.6875L6.08334 18.25H60.8333Z" stroke="black" stroke-width="2" stroke-linecap="round" stroke-linejoin="round"/>
<path d="M53.2292 63.875C50.7094 63.875 48.6667 61.8323 48.6667 59.3125C48.6667 56.7927 50.7094 54.75 53.2292 54.75C55.749 54.75 57.7917 56.7927 57.7917 59.3125C57.7917 61.8323 55.749 63.875 53.2292 63.875Z" stroke="black" stroke-width="2" stroke-linecap="round" stroke-linejoin="round"/>
<path d="M13.6875 63.875C11.1677 63.875 9.125 61.8323 9.125 59.3125C9.125 56.7927 11.1677 54.75 13.6875 54.75C16.2073 54.75 18.25 56.7927 18.25 59.3125C18.25 61.8323 16.2073 63.875 13.6875 63.875Z" stroke="black" stroke-width="2" stroke-linecap="round" stroke-linejoin="round"/>
</svg>
